# ProBuilder 4.2.3
# https://unity3d.com/unity/features/worldbuilding/probuilder
# 3/14/2020 9:46:40 PM

mtllib ./EntryRoom.mtl
o EntryRoom

g EntryRoom
v -62.99998 3.998144 -13.52037
v -63.0002 3.998144 -37.52038
v -55.00019 3.998144 -37.52044
v -55.00016 3.998144 -33.52044
v -51.00016 3.998144 -33.52048
v -50.99998 3.998144 -13.52047
v -42.99998 3.998044 -13.52055
v -43.00016 3.998044 -33.52055
v -62.99998 -0.001856089 -13.52036
v -63.0002 -0.001856089 -37.52038
v -55.00019 -0.001856089 -37.52045
v -55.00015 -0.001856089 -33.52045
v -51.00015 -0.001856089 -33.52048
v -50.99998 -0.001856089 -13.52047
v -42.99997 -0.001955986 -13.52054
v -43.00015 -0.001955986 -33.52055
v -55.00016 0 -33.48907
v -51.00016 0 -33.48911
v -55.00016 4 -33.48907
v -51.00016 4 -33.48911
v -63.00002 0 -17.48899
v -63.0002 0 -37.489
v -63.00002 4 -17.48899
v -63.0002 4 -37.489
v -55.00019 0 -37.48907
v -55.00019 4 -37.48907
v -49.00019 6 -37.48912
v -49.00016 6 -33.48912
v -49.00016 2 -33.48912
v -49.00019 2 -37.48912
v -50.99998 4 -13.4891
v -50.99998 0 -13.4891
v -42.99993 4 -13.48917
v -42.99993 0 -13.48917
v -43.0001 0 -33.48918
v -43.0001 4 -33.48918
v -42.99996 4 -17.48917
v -43.00009 4 -26
v -43.00016 4 -27.94698
v -43.00017 4 -29.49124
v -43.00017 3.294775 -29.49124
v -43.00017 0 -29.49124
v -51.00001 4 -17.4891
v -51.00001 0 -17.4891
v -42.99996 0 -17.48917

vt 2.031375 3.000002
vt 14.03138 3.000001
vt 14.03138 7.000003
vt 12.03138 7.000002
vt 12.03138 9.000003
vt 2.031375 9.000003
vt 2.382555 6.672138
vt 12.34801 5.841686
vt 2.714736 10.65832
vt 12.68019 9.827869
vt 5.968625 3.000001
vt -6.031378 3.000001
vt -6.031375 7.000005
vt -4.031375 7.000005
vt -4.031376 9.000005
vt 5.968626 9.000003
vt 8.285267 5.841686
vt -1.680196 6.672131
vt 8.617445 9.827877
vt -1.348016 10.65832
vt -7.169461 0.02040362
vt -6.411649 0.02040362
vt -7.169461 0.7782161
vt -6.411649 0.7782161
vt -0.8851233 0.02040362
vt 2.903939 0.02040362
vt -0.8851233 0.7782161
vt 2.903939 0.7782161
vt 2.762441 0.02103686
vt 4.278024 0.03308403
vt 2.756417 0.778836
vt 4.272 0.7908831
vt 14.5 11.22609
vt 13.5 11.22609
vt 14.5 12.80722
vt 13.5 12.80722
vt 7.661591 0.5971708
vt 7.661591 -0.1606417
vt 6.524872 0.9760771
vt 6.524872 0.2182646
vt -13.5 9.961175
vt -14.5 9.961175
vt -13.5 11.54231
vt -14.5 11.54231
vt 4.411752 -0.1628976
vt 4.411752 0.5949149
vt 5.54847 0.2160087
vt 5.54847 0.9738212
vt -0.7388039 0.7782161
vt -0.7388039 0.02040362
vt -2.254436 0.7782161
vt -2.254436 0.02040362
vt -6.748379 0.02040362
vt -6.748379 0.7782161
vt -5.232746 0.02040362
vt -5.232746 0.7782161
vt 4 15.99986
vt -2.384186E-07 15.99986
vt 2.127707 15.99985
vt 2.614451 15.99984
vt 3.000515 15.99984
vt -5.569489 0.02040362
vt -5.569489 0.7782161
vt -4.812068 0.7782161
vt -4.812068 0.644609
vt -4.812068 0.02040362
vt 0.136198 0.7782161
vt 0.136198 0.02040362
vt -0.6216145 0.7782161
vt -0.6216145 0.02040362
vt -3.129437 0.02040362
vt -3.129437 0.7782161
vt -2.371625 0.02040362
vt -2.371625 0.7782161

vn 0 -1 0
vn 0 1 0
vn 9.536734E-06 0 1
vn 1 0 -8.964535E-06
vn 0.3162278 -0.9486833 -2.412627E-06
vn -8.900955E-06 0 -1
vn -0.3162276 0.9486834 2.412625E-06
vn 0 0 0
vn 0 0.3333333 0
vn -1 0 -1.622081E-05

usemtl concrete
f 2/2/1 3/3/1 4/4/1
f 2/2/1 4/4/1 1/1/1
f 1/1/1 4/4/1 6/6/1
f 4/4/1 5/5/1 6/6/1
f 14/16/2 13/15/2 12/14/2
f 14/16/2 12/14/2 9/11/2
f 9/11/2 12/14/2 10/12/2
f 12/14/2 11/13/2 10/12/2
f 7/9/1 6/7/1 5/8/1
f 5/8/1 8/10/1 7/9/1
f 15/19/2 16/20/2 13/18/2
f 13/18/2 14/17/2 15/19/2

usemtl UNIConcrete_wall_v1
f 39/60/9 38/59/1 37/58/8
f 36/57/2 40/61/2 39/60/9
f 37/58/8 36/57/2 39/60/9
f 41/65/10 40/64/10 36/63/10
f 35/62/10 41/65/10 36/63/10
f 35/62/10 42/66/10 41/65/10
f 18/22/3 20/24/3 19/23/3
f 19/23/3 17/21/3 18/22/3
f 22/26/4 24/28/4 23/27/4
f 23/27/4 21/25/4 22/26/4
f 25/30/3 26/32/3 24/31/3
f 24/31/3 22/29/3 25/30/3
f 28/36/5 19/34/5 26/33/5
f 26/33/5 27/35/5 28/36/5
f 29/40/6 17/38/6 19/37/6
f 19/37/6 28/39/6 29/40/6
f 30/44/7 25/42/7 17/41/7
f 17/41/7 29/43/7 30/44/7
f 27/48/3 26/46/3 25/45/3
f 25/45/3 30/47/3 27/48/3
f 34/52/6 32/50/6 31/49/6
f 31/49/6 33/51/6 34/52/6
f 36/56/3 20/54/3 18/53/3
f 18/53/3 35/55/3 36/56/3
f 32/70/4 44/68/4 43/67/4
f 43/67/4 31/69/4 32/70/4
f 33/74/10 37/72/10 45/71/10
f 45/71/10 34/73/10 33/74/10

