# ProBuilder 4.2.3
# https://unity3d.com/unity/features/worldbuilding/probuilder
# 3/14/2020 7:32:21 PM

mtllib ./Hangar.mtl
o Hangar

g Hangar
v -20 4 -36
v 2 4 -36
v -20 8 -36
v 2 8 -36
v 2 4 4.000038
v -20 4 4.000038
v 2 8 4.000038
v -20 8 4.000038
v -21 0 -36
v 2 0 -36
v 2 0 4
v -21 0 4
v -18 12 -36
v -18 12 4.000038
v 0 12 4.000038
v 0 12 -36
v -20 4 -2.000004
v 1.999929 0 -35.99992
v -19.99993 0 -35.99992
v -19.99997 2 -35.99996
v -19.99997 2 -2.000004
v -19.99993 0 -2
v -19.99997 2 4.000002
v -19.99993 0 3.999966
v 1.999929 0 3.999966
v 2 8 -28
v 2 4 -28
v 0 12 -28
v 1.999929 0 -28
v 2 4 -32.00002
v 2 8 -32.00002
v 0 12 -32.00002
v 1.999929 0 -31.99998

vt -1.037085 0.4492865
vt 1.712915 0.4492865
vt -1.037085 0.9492865
vt 1.712915 0.9492865
vt 4.012294 -0.1682043
vt 6.762294 -0.1682043
vt 4.012294 0.3317957
vt 6.762294 0.3317957
vt 11.67871 -19.78906
vt 7.321289 -19.78906
vt 7.321289 -12.21094
vt 11.67871 -12.21094
vt -1.029589 9.405987
vt -11.0296 9.405987
vt -1.029589 9.790311
vt -11.0296 9.790311
vt 11.75 9.5
vt 6.25 9.5
vt 11.25 10.5
vt 6.75 10.5
vt 2.114264 0.3045187
vt -0.6357355 0.3045187
vt 1.864264 0.8045187
vt -0.3857355 0.8045187
vt -8.737715 0.3317966
vt -3.737711 0.3317957
vt -3.737711 -0.1682053
vt -7.98771 -0.1682043
vt -8.737715 -0.1682043
vt -7.05719E-05 0.9988265
vt 5.499929 0.9988265
vt 5.499912 -0.001173496
vt -5.340576E-05 -0.001173496
vt -6.198883E-05 0.4988265
vt -3.737716 -0.4182048
vt -7.98771 -0.4182048
vt -3.737721 -0.6682047
vt -7.987711 -0.6682047
vt 6.76229 -0.4182043
vt 6.762285 -0.6682043
vt 4.012302 -0.6682043
vt 3.512289 0.3317957
vt 7.512293 0.3317957
vt 7.512293 -0.1682043
vt 3.512289 -0.1682043
vt -10.99998 9.406185
vt -18.99998 9.406185
vt -18.99998 9.790509
vt -10.99998 9.790509
vt 0.01228905 -0.1682043
vt 0.01228905 -0.6682043
vt -13.98773 -0.1682043
vt -14.48773 -0.1682043
vt -14.48773 0.3317957
vt -13.98773 0.3317957
vt -14.98773 -0.1682043
vt -14.98773 0.3317957
vt -19.99999 9.406185
vt -19.99999 9.790509
vt -20.99998 9.406185
vt -20.99998 9.790509
vt -7.000088 -0.001173496
vt -8.000076 -0.001173496
vt -8.000095 0.9988265
vt -7.000099 0.9988265
vt -7.294922 -12.21091
vt -10.70508 -19.78905
vt -10.70508 -12.21091
vt -7.294922 -19.78905

vn 0 0 1
vn 0 0 -1
vn 0 1 0
vn 0.8944272 -0.4472136 0
vn 1 0 0
vn -1 0 0
vn -0.8944272 -0.4472136 0
vn 0 -1 0

usemtl UNIConcrete_wall_v1
f 8/25/5 17/28/5 3/26/5
f 8/25/5 6/29/5 17/28/5
f 17/28/5 1/27/5 3/26/5
f 20/34/1 19/33/1 18/32/1
f 2/31/1 20/34/1 18/32/1
f 1/30/1 20/34/1 2/31/1
f 5/5/2 23/39/2 6/6/2
f 25/41/2 23/39/2 5/5/2
f 25/41/2 24/40/2 23/39/2
f 2/2/1 4/4/1 3/3/1
f 3/3/1 1/1/1 2/2/1
f 6/6/2 8/8/2 7/7/2
f 7/7/2 5/5/2 6/6/2
f 14/16/4 8/14/4 3/13/4
f 3/13/4 13/15/4 14/16/4
f 15/20/2 7/18/2 8/17/2
f 8/17/2 14/19/2 15/20/2
f 13/24/1 3/22/1 4/21/1
f 4/21/1 16/23/1 13/24/1
f 21/36/5 20/35/5 1/27/5
f 1/27/5 17/28/5 21/36/5
f 22/38/5 19/37/5 20/35/5
f 20/35/5 21/36/5 22/38/5
f 26/42/6 27/45/6 5/44/6
f 5/44/6 7/43/6 26/42/6
f 28/48/7 26/47/7 7/46/7
f 7/46/7 15/49/7 28/48/7
f 27/50/6 29/51/6 25/41/6
f 25/41/6 5/5/6 27/50/6
f 31/54/6 30/53/6 27/52/6
f 27/52/6 26/55/6 31/54/6
f 4/57/6 2/56/6 30/53/6
f 30/53/6 31/54/6 4/57/6
f 32/59/7 31/58/7 26/47/7
f 26/47/7 28/48/7 32/59/7
f 16/61/7 4/60/7 31/58/7
f 31/58/7 32/59/7 16/61/7
f 2/64/6 18/63/6 33/62/6
f 33/62/6 30/65/6 2/64/6

usemtl floor
f 12/12/3 11/11/3 10/10/3 9/9/3

usemtl concrete
f 16/69/8 15/66/8 14/68/8 13/67/8

