# ProBuilder 4.2.3
# https://unity3d.com/unity/features/worldbuilding/probuilder
# 3/14/2020 8:37:06 PM

mtllib ./LockerRoom.mtl
o LockerRoom

g LockerRoom
v -10 0 -38
v -2 0 -38
v -10.00001 4.000099 -38
v -2 4.0001 -38
v -2 0 -26
v -10 0 -26
v -17.99989 0 -26
v -17.9999 4.000099 -26
v -17.99989 0 -38
v -17.9999 4.000099 -38
v -2 4.0001 -26
v -10.00001 4.000099 -26

vt -6.500005 1.750044
vt -5.500005 1.750044
vt -6.500007 2.250056
vt -5.500005 2.250056
vt 5.5 -31.25
vt 6.5 -31.25
vt 5.5 -32.75
vt 6.5 -32.75
vt 31.25 1.750095
vt 31.25 2.250107
vt 32.75 1.750095
vt 32.75 2.250107
vt -31.25 2.250056
vt -31.25 1.750044
vt -32.75 2.250056
vt -32.75 1.750044
vt 13.49996 1.750043
vt 13.49996 2.250056
vt 14.49994 1.750043
vt 14.49995 2.250056
vt 13.49995 -32.75
vt 13.49995 -31.25
vt 14.49994 -32.75
vt 14.49994 -31.25
vt -13.49996 2.250056
vt -13.49996 1.750043
vt -14.49995 2.250056
vt -14.49994 1.750043
vt -13.49995 -32.75
vt -13.49995 -31.25
vt -14.49994 -32.75
vt -14.49994 -31.25
vt -5.5 -31.25
vt -6.5 -31.25
vt -5.5 -32.75
vt -6.5 -32.75

vn 0 0 1
vn 0 1 0
vn 1 2.860952E-06 0
vn -1 0 0
vn 0 0 -1
vn 0 -1 0

usemtl tiles
f 4/4/1 3/3/1 1/1/1 2/2/1
f 2/7/2 1/8/2 6/6/2 5/5/2
f 9/11/3 10/12/3 8/10/3 7/9/3
f 4/15/4 2/16/4 5/14/4 11/13/4
f 7/19/5 8/20/5 12/18/5 6/17/5
f 9/23/2 7/24/2 6/22/2 1/21/2
f 10/27/1 9/28/1 1/26/1 3/25/1
f 3/29/6 12/30/6 8/32/6 10/31/6
f 11/33/6 12/34/6 3/36/6 4/35/6

