# ProBuilder 4.2.3
# https://unity3d.com/unity/features/worldbuilding/probuilder
# 3/1/2020 3:22:51 PM

mtllib ./TestRoom.mtl
o TestRoom

g TestRoom
v 0 0 0
v -10 0 0
v 0 5 0
v -10 5 0
v -10 0 -10
v 0 0 -10
v -10 5 -10
v 0 5 -10
v -10 5 -7.5
v -10 0 -7.5
v 0 5 -7.5
v 0 0 -7.5
v -10 5 -5
v -10 0 -5
v 0 0 -5
v 0 5 -5
v 9.9999 0 -5
v 9.9999 0 -7.5
v 9.9999 5 -7.5
v 9.9999 5 -5
v 7.5 0 -7.5
v 7.5 0 -5
v 7.5 5 -7.5
v 7.5 5 -5
v 7.5 0 14.9999
v 9.9999 0 14.9999
v 9.9999 5 14.9999
v 7.5 5 14.9999
v 9.9999 0 2.4999
v 9.9999 5 2.4999
v 7.5 5 2.4999
v 7.5 0 2.4999
v 17.4999 0 2.4999
v 17.4999 5 2.4999
v 17.4999 0 14.9999
v 17.4999 5 14.9999
v 0.0001001358 5 2.4999
v 0.0001001358 0 2.4999
v 0.0001001358 5 14.9999
v 0.0001001358 0 14.9999

vt -2.986203 0.006148338
vt -1.486203 0.006148338
vt -2.986203 0.7561483
vt -1.486203 0.7561483
vt 0.01379681 0.006148338
vt 1.513797 0.006148338
vt 0.01379681 0.7561483
vt 1.513797 0.7561483
vt -0.3612032 0.7561483
vt -0.3612032 0.006148338
vt -17.98611 0.7561483
vt -17.61111 0.7561483
vt -17.61111 0.006148338
vt -17.98611 0.006148338
vt -4.25 -5.75
vt -5.75 -5.75
vt -5.75 -5.375
vt -4.25 -5.375
vt -0.9328976 -4.168455
vt -0.9328976 -4.543455
vt -2.432898 -4.543455
vt -2.432898 -4.168455
vt -0.7362032 0.7561483
vt -0.7362032 0.006148338
vt -3.736203 0.006148338
vt -3.736203 0.7561483
vt -15.73613 0.006148338
vt -16.11113 0.006148338
vt -16.11113 0.7561483
vt -15.73613 0.7561483
vt -5.75 -5
vt -4.25 -5
vt -5.75 -4.25
vt -4.25 -4.25
vt -2.432898 -3.793455
vt -0.9328976 -3.793455
vt -2.432898 -3.043455
vt -0.9328976 -3.043455
vt -3.557898 -4.168455
vt -3.557898 -3.793455
vt -3.932882 -4.168455
vt -3.932882 -3.793455
vt -16.48611 0.7561483
vt -16.48611 0.006148338
vt -4.861203 0.006148338
vt -4.861203 0.7561483
vt -10.11116 0.006148338
vt -10.48614 0.006148338
vt -10.48614 0.7561483
vt -10.11116 0.7561483
vt 4.249958 -6.4375
vt 4.249958 -6.0625
vt 5.374958 -6.0625
vt 5.374958 -6.4375
vt 5.749942 -6.0625
vt 5.749942 -6.4375
vt -14.61114 0.006148338
vt -14.61114 0.7561483
vt 8.937443 -1.812543
vt 8.562458 -1.812543
vt 8.937443 -0.6875576
vt 8.562458 -0.6875576
vt -5.986188 0.7561483
vt -5.986188 0.006148338
vt -3.557898 -2.668471
vt -3.932882 -2.668471
vt -13.48614 0.006148338
vt -13.48614 0.7561483
vt -11.61114 0.006148338
vt -11.61114 0.7561483
vt 8.937443 7.8124
vt 8.562458 7.8124
vt 8.937443 9.6874
vt 8.562458 9.6874
vt -7.111173 0.7561483
vt -7.111173 0.006148338
vt -8.986173 0.7561483
vt -8.986173 0.006148338
vt -3.557898 -0.7934723
vt -3.932882 -0.7934723
vt 4.312542 9.6874
vt 4.312542 7.8124
vt 3.187558 9.6874
vt 3.187558 7.8124
vt -2.432913 -2.66847
vt -2.432913 -0.7934723
vt -5.057881 -0.7934723
vt -5.057881 -2.66847
vt 13.1874 7.8124
vt 13.1874 9.6874
vt 14.3124 7.8124
vt 14.3124 9.6874

vn 0 0 -1
vn 0 0 1
vn 1 0 0
vn -1 0 0
vn 0 -1 0
vn 0 1 0

usemtl concrete
f 1/1/1 2/2/1 4/4/1 3/3/1
f 5/5/2 6/6/2 8/8/2 7/7/2
f 5/5/3 7/7/3 9/9/3 10/10/3
f 11/12/4 8/11/4 6/14/4 12/13/4
f 8/15/5 11/18/5 9/17/5 7/16/5
f 14/24/3 13/23/3 4/4/3 2/2/3
f 10/10/3 9/9/3 13/23/3 14/24/3
f 3/3/4 16/26/4 15/25/4 1/1/4
f 20/30/4 19/29/4 18/28/4 17/27/4
f 11/18/5 16/32/5 13/31/5 9/17/5
f 16/32/5 3/34/5 4/33/5 13/31/5
f 23/43/2 11/12/2 12/13/2 21/44/2
f 19/29/2 23/43/2 21/44/2 18/28/2
f 15/25/1 16/26/1 24/46/1 22/45/1
f 25/47/1 28/50/1 27/49/1 26/48/1
f 23/54/5 24/53/5 16/52/5 11/51/5
f 19/56/5 20/55/5 24/53/5 23/54/5
f 29/57/4 30/58/4 20/30/4 17/27/4
f 30/61/5 31/62/5 24/60/5 20/59/5
f 31/63/3 32/64/3 22/45/3 24/46/3
f 35/69/4 36/70/4 34/68/4 33/67/4
f 27/73/5 28/74/5 31/72/5 30/71/5
f 39/77/3 40/78/3 38/76/3 37/75/3
f 37/75/2 38/76/2 32/64/2 31/63/2
f 39/83/5 37/84/5 31/82/5 28/81/5
f 40/78/1 39/77/1 28/50/1 25/47/1
f 33/67/2 34/68/2 30/58/2 29/57/2
f 34/91/5 36/92/5 27/90/5 30/89/5
f 36/70/1 35/69/1 26/48/1 27/49/1

usemtl floor
f 10/19/6 12/22/6 6/21/6 5/20/6
f 14/36/6 15/35/6 12/22/6 10/19/6
f 2/38/6 1/37/6 15/35/6 14/36/6
f 15/35/6 22/40/6 21/39/6 12/22/6
f 22/40/6 17/42/6 18/41/6 21/39/6
f 32/65/6 29/66/6 17/42/6 22/40/6
f 25/79/6 26/80/6 29/66/6 32/65/6
f 38/85/6 40/86/6 25/79/6 32/65/6
f 35/87/6 33/88/6 29/66/6 26/80/6

